<svg width="190" height="78" viewBox="0 0 190 78" fill="none" xmlns="http://www.w3.org/2000/svg">
<path d="M51.5295 16.8491C51.606 17.1088 26.7602 14.4587 26.7602 14.4587L19.4226 20.3415L24.1218 7.28597L0.0615903 0L0 78L30.1643 63.0702L23.3594 57.845C23.3594 57.845 26.7036 50.2011 32.0003 41.179H24.3715L21.257 50.2011H14.4538L17.5682 41.179H9.11537L11.2094 35.0965H19.6623L22.2424 27.5325H29.0457L26.4672 35.0965H35.7008L35.6308 35.3013C40.1902 28.2899 45.6851 21.2537 51.5311 16.8508L51.5295 16.8491ZM26.2724 1.30838C26.2724 1.30838 26.2891 1.30338 26.3274 1.30172C26.2991 1.2884 26.2824 1.28008 26.2824 1.28008L26.2724 1.30838ZM65.0078 16.9107C65.0078 16.9107 42.8119 6.12741 41.174 0.735755C41.4686 1.09198 27.3028 1.24346 26.3274 1.30172C27.689 1.95092 60.6498 17.6698 60.6582 17.6498C60.6482 17.6648 60.6365 17.6781 60.6249 17.6931C57.5986 21.49 44.3267 39.8956 44.7279 74.3861C44.7279 74.3861 59.999 66.0382 60.0456 65.7469C53.7501 48.6514 65.0078 16.9107 65.0078 16.9107Z" fill="white"/>
<path d="M186.359 36.2031H172.312V38.9531L186.383 38.9297C186.857 38.9297 187.096 38.6719 187.102 38.1562L187.109 36.9609C187.115 36.4557 186.865 36.2031 186.359 36.2031ZM172.312 40.8984V44.0156H170.336V34.25H186.695C188.294 34.25 189.094 35.0234 189.094 36.5703V38.4922C189.094 40.1016 188.302 40.9062 186.719 40.9062L172.312 40.8984Z" fill="white"/>
<path d="M166.82 41.2656V34.25H168.75V41.6172C168.75 43.2161 167.966 44.0156 166.398 44.0156H152.336C150.773 44.0156 149.992 43.2161 149.992 41.6172V34.25H151.969V41.2656C151.969 41.8125 152.224 42.0859 152.734 42.0859L166.055 42.0703C166.565 42.0703 166.82 41.8021 166.82 41.2656Z" fill="white"/>
<path d="M146.484 41.2969V37.0234C146.484 36.4766 146.224 36.2031 145.703 36.2031H132.438C131.917 36.2031 131.656 36.4583 131.656 36.9688V41.2734C131.656 41.8047 131.917 42.0703 132.438 42.0703H145.719C146.229 42.0703 146.484 41.8125 146.484 41.2969ZM132.023 44.0156C130.461 44.0156 129.68 43.2318 129.68 41.6641V36.6016C129.68 35.0391 130.453 34.2578 132 34.2578H146.055C147.643 34.2578 148.438 35.0573 148.438 36.6562V41.7109C148.438 43.2318 147.669 43.9922 146.133 43.9922L132.023 44.0156Z" fill="white"/>
<path d="M128.133 44.0156H125.75L123.391 40.8828H111.328V44.0156H109.352L109.375 34.25H125.789C127.336 34.25 128.109 35.0182 128.109 36.5547V38.5547C128.109 40.1068 127.32 40.8828 125.742 40.8828L128.133 44.0156ZM125.32 36.1953H111.328V38.9453H125.383C125.898 38.9453 126.159 38.6693 126.164 38.1172L126.18 36.9844C126.185 36.4583 125.898 36.1953 125.32 36.1953Z" fill="white"/>
<path d="M98 40.1016V38.1719H107.766V41.6172C107.766 43.2161 106.982 44.0156 105.414 44.0156H91.3594C89.7865 44.0156 89.0026 43.2161 89.0078 41.6172L89.0313 36.6016C89.0365 35.0391 89.8047 34.2578 91.336 34.2578H107.766V36.2031H91.7422C91.237 36.2031 90.9844 36.4844 90.9844 37.0469V41.2734C90.9844 41.8047 91.237 42.0703 91.7422 42.0703H105.047C105.568 42.0703 105.826 41.8073 105.82 41.2812L105.813 40.1016H98Z" fill="white"/>
</svg>
